<?xml version="1.0" encoding="utf-8"?>
<!-- Generator: Adobe Illustrator 16.0.0, SVG Export Plug-In . SVG Version: 6.00 Build 0)  -->
<!DOCTYPE svg PUBLIC "-//W3C//DTD SVG 1.1//EN" "http://www.w3.org/Graphics/SVG/1.1/DTD/svg11.dtd">
<svg version="1.1" id="Layer_1" xmlns="http://www.w3.org/2000/svg" xmlns:xlink="http://www.w3.org/1999/xlink" x="0px" y="0px"
	 width="72.002px" height="72px" viewBox="0 0 72.002 72" enable-background="new 0 0 72.002 72" xml:space="preserve">
<g>
	<path d="M36.001,0c-19.76,0-35.84,16.08-36,35.76c-0.08,9.6,3.6,18.721,10.4,25.52C17.122,68.16,26.162,71.92,35.761,72h0.24
		c19.76,0,35.84-16.08,36-35.76C72.162,16.4,56.082,0.16,36.001,0z M36.001,67.12h-0.24c-8.32-0.08-16.08-3.36-22-9.28
		c-5.76-5.84-8.96-13.68-8.88-22c0.08-17.04,14.08-30.96,31.36-30.96c17.199,0.08,31.039,14.16,30.96,31.36
		C67.042,53.279,53.042,67.12,36.001,67.12z"/>
	<path d="M58.961,28.48c0-0.08,0-0.08,0-0.16l0,0c0-0.08,0-0.08,0-0.16v-0.08V28v-0.08v-0.08v-0.08v-0.08V27.6c0,0,0-0.08-0.08-0.08
		c0,0,0,0,0-0.08c0,0,0-0.08-0.08-0.08c0,0,0,0,0-0.08l0,0l-7.28-8.64l0,0l-0.08-0.08c0,0,0,0-0.08-0.08l-0.08-0.08
		c0,0-0.079,0-0.079-0.08l0,0c0,0,0,0-0.08,0c0,0-0.08,0-0.08-0.08c0,0-0.08,0-0.08-0.08h-0.08c0,0-0.08,0-0.08-0.08
		c0,0,0,0-0.079,0c-0.08,0-0.08,0-0.16,0c0,0,0,0-0.08,0s-0.08,0-0.16,0l0,0c-0.08,0-0.16,0-0.16,0l0,0h-28.08l0,0
		c-0.08,0-0.16,0-0.16,0l0,0c-0.08,0-0.08,0-0.16,0c0,0,0,0-0.08,0c-0.08,0-0.08,0-0.16,0h-0.08c0,0-0.08,0-0.08,0.08h-0.08
		c0,0-0.08,0-0.08,0.08c0,0-0.08,0-0.08,0.08c0,0,0,0-0.08,0l0,0c0,0-0.08,0-0.08,0.08l-0.08,0.08c0,0,0,0-0.08,0.08l-0.08,0.08l0,0
		l-7.28,8.64l0,0c0,0,0,0,0,0.08l-0.08,0.08c0,0,0,0,0,0.08c0,0,0,0.08-0.08,0.08v0.08v0.08v0.08v0.08V28v0.08v0.08
		c0,0.08,0,0.08,0,0.16l0,0c0,0.08,0,0.08,0,0.16l0,0l0,0v0.08v0.08v0.08v0.08v0.08v0.08v0.08v0.08c0,0.08,0.08,0.08,0.08,0.16
		c0,0,0,0,0,0.08c0,0,0,0.08,0.08,0.08c0,0,0,0,0.08,0.08c0,0,0,0.08,0.08,0.08l21.2,26.8c0.32,0.399,0.88,0.64,1.36,0.64
		c0.48,0,1.04-0.24,1.359-0.64l21.121-26.8c0,0,0-0.08,0.08-0.08c0,0,0,0,0.079-0.08c0,0,0-0.08,0.08-0.08c0,0,0,0,0-0.08
		c0-0.08,0.08-0.08,0.08-0.16v-0.08v-0.08v-0.08V28.8v-0.08v-0.08v-0.08C58.961,28.64,58.961,28.64,58.961,28.48
		C58.961,28.56,58.961,28.56,58.961,28.48C58.961,28.56,58.961,28.48,58.961,28.48z M50.082,22.8l3.359,4h-6.08L50.082,22.8z
		 M46.642,21.6l-2.801,4.08l-3.84-4.08H46.642z M36.001,22.48l4,4.32h-8L36.001,22.48z M32.001,21.6l-3.76,4.08l-2.88-4.08H32.001z
		 M21.921,22.8l2.72,4h-6.08L21.921,22.8z M18.401,30.32h8.32l5.2,17.04L18.401,30.32z M36.001,48.721l-5.6-18.401h11.2
		L36.001,48.721z M40.082,47.359l5.199-17.04h8.32L40.082,47.359z"/>
</g>
</svg>
