<?xml version="1.0" encoding="utf-8"?>
<!-- Generator: Adobe Illustrator 16.0.0, SVG Export Plug-In . SVG Version: 6.00 Build 0)  -->
<!DOCTYPE svg PUBLIC "-//W3C//DTD SVG 1.1//EN" "http://www.w3.org/Graphics/SVG/1.1/DTD/svg11.dtd">
<svg version="1.1" id="Layer_1" xmlns="http://www.w3.org/2000/svg" xmlns:xlink="http://www.w3.org/1999/xlink" x="0px" y="0px"
	 width="72.002px" height="72px" viewBox="63.999 4 72.002 72" enable-background="new 63.999 4 72.002 72" xml:space="preserve">
<path d="M100,4C79.92,4.16,63.84,20.4,64,40.24c0,3.68,0.64,7.28,1.68,10.64c0,0.479,0.16,0.96,0.48,1.36
	C71.2,66.08,84.48,76,100,76h0.24c9.6-0.08,18.64-3.84,25.359-10.721C132.32,58.4,136.08,49.36,136,39.76
	C135.84,20.08,119.76,4,100,4z M114.32,15.12c0,2.08-1.68,3.76-3.76,3.76s-3.762-1.68-3.762-3.76s1.682-3.76,3.762-3.76
	S114.32,13.04,114.32,15.12z M100.16,71.12H100c-13.12,0-24.4-8.24-28.96-19.761L90.16,34.8l23.199,33.36
	C109.279,70.08,104.8,71.12,100.16,71.12z M122.16,61.92c-1.52,1.52-3.12,2.801-4.801,4L106.24,49.84l10.32-8.88l10.318,14.88
	C125.52,58,124,60,122.16,61.92z M129.12,51.04l-10.24-14.88c-0.399-0.56-0.96-0.88-1.601-0.96c-0.639-0.08-1.279,0.08-1.84,0.56
	L103.52,46L92.48,30c-0.4-0.56-0.96-0.88-1.6-0.96c-0.64-0.08-1.28,0.08-1.84,0.56L69.52,46.48c-0.4-2-0.64-4.16-0.72-6.32
	C68.72,22.96,82.56,8.96,99.76,8.8c1.68,0,3.28,0.16,4.801,0.4c-1.521,1.52-2.399,3.6-2.399,5.92c0,4.64,3.76,8.4,8.399,8.4
	c4.561,0,8.239-3.6,8.399-8.08c7.36,5.68,12.08,14.48,12.16,24.4C131.2,43.68,130.48,47.44,129.12,51.04z"/>
</svg>
