<?xml version="1.0" encoding="utf-8"?>
<!-- Generator: Adobe Illustrator 16.0.0, SVG Export Plug-In . SVG Version: 6.00 Build 0)  -->
<!DOCTYPE svg PUBLIC "-//W3C//DTD SVG 1.1//EN" "http://www.w3.org/Graphics/SVG/1.1/DTD/svg11.dtd">
<svg version="1.1" id="Layer_1" xmlns="http://www.w3.org/2000/svg" xmlns:xlink="http://www.w3.org/1999/xlink" x="0px" y="0px"
	 width="72px" height="72.002px" viewBox="64 3.999 72 72.002" enable-background="new 64 3.999 72 72.002" xml:space="preserve">
<g>
	<path d="M100.24,4C80.4,3.84,64.16,19.92,64,40c0,19.76,16.08,35.84,35.76,36c9.6,0.08,18.721-3.6,25.52-10.4
		C132.16,58.88,135.92,49.84,136,40.24V40C136,20.24,119.92,4.16,100.24,4z M131.12,40.16c-0.08,8.32-3.36,16.08-9.28,22
		c-5.84,5.84-13.68,9.04-22,8.96C82.8,71.04,68.88,57.04,68.88,39.76c0.08-17.2,14.16-31.04,31.36-30.96
		c17.039,0.16,30.88,14.16,30.88,31.2V40.16z"/>
	<path d="M100,42.56c-1.28,0-2.32,1.04-2.32,2.32v0.08c0,1.28,1.04,2.32,2.32,2.32c1.279,0,2.32-1.04,2.32-2.32v-0.08
		C102.32,43.6,101.279,42.56,100,42.56z"/>
	<path d="M100,15.6c-1.28,0-2.4,0.64-3.12,1.76l-20.4,32.8c-0.72,1.119-0.72,2.561-0.08,3.68c0.64,1.2,1.84,1.92,3.2,1.92h40.8
		c1.359,0,2.56-0.72,3.199-1.92c0.641-1.199,0.641-2.561-0.08-3.68l-20.399-32.8C102.4,16.24,101.279,15.6,100,15.6z M81.36,51.04
		L100,21.12l18.641,29.92H81.36z"/>
	<path d="M97.68,31.28v6.64c0,1.28,1.04,2.32,2.32,2.32c1.279,0,2.32-1.04,2.32-2.32v-6.64c0-1.28-1.041-2.32-2.32-2.32
		C98.72,28.96,97.68,30,97.68,31.28z"/>
</g>
</svg>
