<?xml version="1.0" encoding="utf-8"?>
<!-- Generator: Adobe Illustrator 16.0.0, SVG Export Plug-In . SVG Version: 6.00 Build 0)  -->
<!DOCTYPE svg PUBLIC "-//W3C//DTD SVG 1.1//EN" "http://www.w3.org/Graphics/SVG/1.1/DTD/svg11.dtd">
<svg version="1.1" id="Layer_1" xmlns="http://www.w3.org/2000/svg" xmlns:xlink="http://www.w3.org/1999/xlink" x="0px" y="0px"
	 width="72.002px" height="72px" viewBox="63.999 4 72.002 72" enable-background="new 63.999 4 72.002 72" xml:space="preserve">
<g>
	<path d="M100,4C79.92,4.16,63.84,20.4,64,40.24C64.16,59.92,80.24,76,100,76h0.24c9.6-0.08,18.64-3.84,25.359-10.721
		C132.32,58.4,136.08,49.36,136,39.76C135.84,20.08,119.76,4,100,4z M122.16,61.92c-5.84,5.92-13.68,9.2-22,9.28H100
		c-17.04,0-31.04-13.921-31.12-30.96C68.8,23.04,82.64,9.04,99.84,8.88c17.28,0,31.2,13.92,31.36,30.96
		C131.2,48.16,128,56,122.16,61.92z"/>
	<path d="M115.279,37.04c-0.079,0-0.079,0-0.159,0l0.64-3.84c0.08-0.64-0.08-1.28-0.48-1.76c-0.399-0.48-1.039-0.8-1.68-0.8H84
		c-0.64,0-1.2,0.32-1.68,0.8c-0.4,0.48-0.56,1.12-0.48,1.76l4.48,26.479c0.16,1.041,1.04,1.84,2.16,1.84h20.799
		c1.041,0,1.921-0.799,2.16-1.84l0.641-4c1.04,0.4,2.16,0.561,3.279,0.561c5.281,0,9.601-4.32,9.601-9.6
		C124.96,41.36,120.561,37.04,115.279,37.04z M107.359,57.12H90.24l-3.76-22.16h24.64L107.359,57.12z M115.279,51.92
		c-0.879,0-1.76-0.24-2.559-0.641l1.68-9.839c0.32-0.08,0.56-0.08,0.879-0.08c2.881,0,5.281,2.4,5.281,5.28
		C120.561,49.52,118.24,51.92,115.279,51.92z"/>
	<path d="M97.04,20.56c1.2,1.84,0.4,2.8,0.24,2.96l0,0c1.28,1.52,3.76,0.48,3.6-1.44c-0.08-0.96-0.4-2.08-1.2-3.2
		c-1.2-1.84-0.4-2.8-0.24-2.96l0,0c-1.28-1.52-3.76-0.48-3.6,1.44C95.92,18.32,96.32,19.36,97.04,20.56z"/>
	<path d="M105.2,22.64c1.2,1.84,0.399,2.8,0.239,2.96l0,0c1.281,1.52,3.761,0.48,3.601-1.44c-0.08-0.96-0.399-2.08-1.2-3.2
		c-1.199-1.84-0.4-2.8-0.24-2.96l0,0c-1.279-1.52-3.76-0.48-3.6,1.44C104,20.4,104.4,21.44,105.2,22.64z"/>
	<path d="M88.96,22.64c1.2,1.84,0.4,2.8,0.24,2.96l0,0c1.28,1.52,3.76,0.48,3.6-1.44c-0.08-0.96-0.4-2.08-1.2-3.2
		c-1.2-1.84-0.4-2.8-0.24-2.96l0,0c-1.28-1.52-3.76-0.48-3.6,1.44C87.84,20.4,88.16,21.44,88.96,22.64z"/>
</g>
</svg>
