<?xml version="1.0" encoding="utf-8"?>
<!-- Generator: Adobe Illustrator 16.0.0, SVG Export Plug-In . SVG Version: 6.00 Build 0)  -->
<!DOCTYPE svg PUBLIC "-//W3C//DTD SVG 1.1//EN" "http://www.w3.org/Graphics/SVG/1.1/DTD/svg11.dtd">
<svg version="1.1" id="Layer_1" xmlns="http://www.w3.org/2000/svg" xmlns:xlink="http://www.w3.org/1999/xlink" x="0px" y="0px"
	 width="72.002px" height="72px" viewBox="63.999 4 72.002 72" enable-background="new 63.999 4 72.002 72" xml:space="preserve">
<g>
	<path d="M100,4C79.92,4.16,63.84,20.4,64,40.24C64.16,59.92,80.24,76,100,76h0.24c9.6-0.08,18.64-3.84,25.359-10.721
		C132.32,58.4,136.08,49.36,136,39.76C135.84,20.08,119.76,4,100,4z M122.16,61.92c-5.84,5.92-13.68,9.2-22,9.28H100
		c-17.04,0-31.04-13.921-31.12-30.96C68.8,23.04,82.64,9.04,99.84,8.88c17.28,0,31.2,13.92,31.36,30.96
		C131.2,48.16,128,56,122.16,61.92z"/>
	<path d="M112.4,18.48c-2.4,0-4.721,0.96-6.48,2.64l-24,24c-0.32,0.32-0.56,0.72-0.64,1.2L78.8,58.4c-0.16,0.8,0.08,1.52,0.64,2.08
		c0.4,0.399,1.04,0.64,1.68,0.64c0.16,0,0.32,0,0.48-0.08l12-2.319c0.48-0.08,0.88-0.32,1.2-0.641l24-24
		c3.521-3.52,3.521-9.36,0-12.88C117.12,19.44,114.8,18.48,112.4,18.48z M87.36,55.279c-0.24-0.559-0.64-1.039-1.12-1.52
		c-0.48-0.48-0.96-0.8-1.52-1.119l0.88-4.161c1.44,0.24,2.8,0.96,3.92,2c1.04,1.04,1.76,2.4,2,3.92L87.36,55.279z M115.52,30.8
		L94.16,52.08c-0.48-1.439-1.36-2.8-2.48-3.84c-1.12-1.12-2.4-1.92-3.84-2.48L109.2,24.4c0.88-0.88,2-1.28,3.2-1.28
		c1.199,0,2.32,0.48,3.199,1.28C117.279,26.16,117.279,29.04,115.52,30.8z"/>
</g>
</svg>
