<?xml version="1.0" encoding="utf-8"?>
<!-- Generator: Adobe Illustrator 16.0.0, SVG Export Plug-In . SVG Version: 6.00 Build 0)  -->
<!DOCTYPE svg PUBLIC "-//W3C//DTD SVG 1.1//EN" "http://www.w3.org/Graphics/SVG/1.1/DTD/svg11.dtd">
<svg version="1.1" id="Layer_1" xmlns="http://www.w3.org/2000/svg" xmlns:xlink="http://www.w3.org/1999/xlink" x="0px" y="0px"
	 width="100px" height="100px" viewBox="0 0 100 100" enable-background="new 0 0 100 100" xml:space="preserve">
<g>
	<g transform="translate(50 50) scale(0.69 0.69) rotate(0) translate(-50 -50)">
		<path d="M94.363,42.307c-0.801-1.101-2.1-1.8-3.7-1.901c-1.701-0.099-3.501,0.3-5.5,1.4c-3.702,2.001-5.701,5.101-7.501,7.901
			c-1.5,2.198-2.799,4.202-4.6,5.101c-3.201,1.5-6.601,0.3-8.401-2.999c-0.401-0.702-0.8-1.6-1.301-2.902
			c-0.099-0.497-0.2-0.999-0.3-1.5c-0.6-1.899-1.199-4.199-1.898-6.4c-0.6-2-1.101-3.899-1.599-5.5c-0.9-2.799-3-4.499-5.701-4.499
			c-0.8,0-1.7,0.2-2.6,0.5c-1.799,0.6-3.101,1.8-3.899,3.4c-0.3,0.6-0.402,1.2-0.501,1.8c-0.999-0.701-2.1-1.001-3.401-1.001
			c-1.2,0-2.399,0.3-3.7,0.9c-1.8,0.9-3.1,2.4-3.7,4.201c-0.102,0.5-0.201,0.899-0.3,1.4c-1.101-0.8-2.301-1.2-3.602-1.2
			c-1.301,0-2.699,0.401-4,1.2c-1.601,1.001-2.7,2.6-3.101,4.4c-0.1,0.401-0.1,0.9-0.1,1.3c-4.798-5.9-10.298-12.7-11-13.5
			c-1.799-2.1-4.6-2.4-6.9-0.8c-2.201,1.599-2.6,4.6-0.9,6.9c0.3,0.401,1.001,1.4,2,2.799c4.1,5.6,12.5,17.2,15.299,21.302
			c2.1,2.999,2.801,4.9,3.601,7.3c0.6,1.499,1.2,3.199,2.301,5.5c2.499,5.2,6.898,9.199,12.398,11.099
			c2.4,0.801,4.901,1.299,7.3,1.299c3.201,0,6.502-0.699,9.501-2.199c7.701-3.7,12.6-8.599,16.999-12.998
			c1.701-1.701,3.301-3.3,5.002-4.801c2.799-2.499,4.999-6.901,7.099-11.102c1.7-3.401,3.3-6.598,4.9-8.201
			C95.362,47.906,95.962,44.607,94.363,42.307z M49.362,35.706c0.501-0.999,1.401-1.799,2.601-2.3c0.6-0.2,1.299-0.3,1.899-0.3
			c1.8,0,3.1,1.101,3.7,3c0.501,1.601,1.001,3.5,1.601,5.5c0.6,2.202,1.301,4.501,1.901,6.399c0.798,2.499,0.099,3.9-2.301,4.701
			c-0.6,0.198-1.1,0.3-1.599,0.3l0,0c-1.401,0-2.399-0.9-3.098-2.6c-0.501-1.2-1.101-2.599-1.701-3.999
			c-0.999-2.3-2.1-4.901-3.1-7.401C48.865,37.907,48.964,36.706,49.362,35.706z M38.263,41.306c0.399-1.299,1.299-2.3,2.6-3
			c0.899-0.5,1.799-0.699,2.699-0.699c1.8,0,3.101,0.999,4.001,2.9c0.801,1.7,1.602,3.8,2.499,5.999c1.001,2.301,2,4.799,2.9,6.8
			c1.299,2.799,0.701,4.399-1.899,5.698c-0.801,0.402-1.5,0.6-2.198,0.6l0,0c-1.403,0-2.502-0.798-3.503-2.498
			c-0.398-0.6-0.698-1.299-1.199-1.998c-1.8-3.101-3.8-6.601-5.599-10.001C37.963,43.906,37.862,42.607,38.263,41.306z
			 M27.362,46.906c0.3-1.2,1.001-2.3,2.099-3c0.9-0.6,1.899-0.9,2.799-0.9c1.5,0,2.901,0.9,3.802,2.6
			c0.9,1.601,1.998,3.6,3.101,5.699c1.2,2.199,2.399,4.601,3.499,6.4c1.5,2.601,1.2,4.301-1.098,5.702
			c-0.801,0.497-1.601,0.797-2.301,0.797l0,0c-1.199,0-2.297-0.797-3.4-2.198c-0.399-0.6-0.9-1.2-1.299-1.899
			c-2.099-2.9-4.402-6.301-6.601-9.5C27.362,49.506,27.062,48.206,27.362,46.906z M91.263,48.807c-1.901,1.8-3.601,5.2-5.401,8.8
			c-2,4.099-4.1,8.298-6.601,10.499c-1.799,1.5-3.4,3.2-5.098,4.9c-4.402,4.403-9.001,9.001-16.401,12.602
			c-4.801,2.298-10.1,2.6-15.103,0.798c-4.999-1.8-8.898-5.299-11.198-10.002c-1.002-2.097-1.602-3.799-2.202-5.299
			c-0.899-2.399-1.697-4.501-3.898-7.801c-2.799-4.099-11.301-15.797-15.401-21.398c-0.998-1.4-1.7-2.3-2-2.799
			c-1.001-1.4-0.8-3,0.402-3.901c1.299-0.998,2.899-0.8,4,0.5c1.2,1.401,17.301,21.301,18,22.2c0.8,1.2,1.7,2.4,2.499,3.5
			c0.501,0.702,0.9,1.302,1.301,1.898c1.499,2.1,3.2,3.201,5.099,3.201l0,0c1.101,0,2.3-0.399,3.4-1.101
			c1.901-1.2,2.901-2.698,3-4.498c0.801,0.6,1.799,0.9,3,0.9l0,0c0.999,0,2.1-0.201,3.2-0.801c2.801-1.401,3.5-3.4,3.2-6.001
			c0.501,0.201,0.998,0.201,0.998,0.201l0,0c1.001,0,2.001-0.099,2.801-0.399c1.602-0.501,2.802-1.302,3.4-2.202
			c0,0.102,0.201,0.201,0.201,0.201c2.301,4.301,7,5.899,11.201,3.902c2.3-1.101,3.901-3.401,5.5-5.8c1.8-2.7,3.601-5.4,6.799-7.2
			c2.801-1.5,5.302-1.601,6.4-0.1C93.364,44.706,93.364,46.806,91.263,48.807z"/>
	</g>
</g>
<g>
	<path d="M26.876,30.81c-0.102,0-0.185-0.027-0.248-0.081c-0.063-0.054-0.104-0.096-0.122-0.126l-2.061-3.078v3.042
		c0,0.066-0.024,0.123-0.072,0.171c-0.048,0.048-0.105,0.072-0.171,0.072h-1.179c-0.066,0-0.123-0.024-0.171-0.072
		c-0.048-0.048-0.072-0.105-0.072-0.171v-5.814c0-0.066,0.024-0.123,0.072-0.171c0.048-0.048,0.105-0.072,0.171-0.072h0.936
		c0.102,0,0.185,0.027,0.248,0.081c0.063,0.054,0.104,0.096,0.122,0.126l2.061,3.078v-3.042c0-0.066,0.024-0.123,0.072-0.171
		c0.048-0.048,0.105-0.072,0.171-0.072h1.179c0.066,0,0.123,0.024,0.171,0.072c0.048,0.048,0.072,0.105,0.072,0.171v5.814
		c0,0.066-0.024,0.123-0.072,0.171c-0.048,0.048-0.105,0.072-0.171,0.072H26.876z"/>
	<path d="M33.824,29.37c0.066,0,0.123,0.024,0.171,0.072c0.048,0.048,0.072,0.105,0.072,0.171v0.954
		c0,0.066-0.024,0.123-0.072,0.171c-0.048,0.048-0.105,0.072-0.171,0.072h-4.266c-0.066,0-0.123-0.024-0.171-0.072
		c-0.048-0.048-0.072-0.105-0.072-0.171v-5.814c0-0.066,0.024-0.123,0.072-0.171c0.048-0.048,0.105-0.072,0.171-0.072h4.194
		c0.066,0,0.123,0.024,0.171,0.072c0.048,0.048,0.072,0.105,0.072,0.171v0.954c0,0.066-0.024,0.123-0.072,0.171
		c-0.048,0.048-0.105,0.072-0.171,0.072H30.98v0.972h2.574c0.066,0,0.123,0.024,0.171,0.072c0.048,0.048,0.072,0.105,0.072,0.171
		v0.954c0,0.066-0.024,0.123-0.072,0.171c-0.048,0.048-0.105,0.072-0.171,0.072H30.98v1.008H33.824z"/>
	<path d="M39.611,29.37c0.066,0,0.123,0.024,0.171,0.072c0.048,0.048,0.072,0.105,0.072,0.171v0.954
		c0,0.066-0.024,0.123-0.072,0.171c-0.048,0.048-0.105,0.072-0.171,0.072h-4.266c-0.066,0-0.123-0.024-0.171-0.072
		c-0.048-0.048-0.072-0.105-0.072-0.171v-5.814c0-0.066,0.024-0.123,0.072-0.171c0.048-0.048,0.105-0.072,0.171-0.072h4.194
		c0.066,0,0.123,0.024,0.171,0.072c0.048,0.048,0.072,0.105,0.072,0.171v0.954c0,0.066-0.024,0.123-0.072,0.171
		c-0.048,0.048-0.105,0.072-0.171,0.072h-2.772v0.972h2.574c0.066,0,0.123,0.024,0.171,0.072c0.048,0.048,0.072,0.105,0.072,0.171
		v0.954c0,0.066-0.024,0.123-0.072,0.171c-0.048,0.048-0.105,0.072-0.171,0.072h-2.574v1.008H39.611z"/>
	<path d="M43.517,24.51c0.414,0,0.792,0.062,1.134,0.184c0.342,0.123,0.637,0.296,0.886,0.518c0.249,0.222,0.444,0.488,0.585,0.797
		c0.141,0.309,0.221,0.646,0.239,1.012c0.006,0.126,0.009,0.242,0.009,0.347s0,0.206,0,0.301c0,0.096,0,0.195,0,0.297
		c0,0.103-0.003,0.213-0.009,0.333c-0.018,0.373-0.096,0.711-0.234,1.017c-0.138,0.306-0.329,0.57-0.572,0.792
		c-0.243,0.222-0.532,0.395-0.868,0.518c-0.336,0.123-0.711,0.185-1.125,0.185h-2.43c-0.066,0-0.123-0.024-0.171-0.072
		c-0.048-0.048-0.072-0.105-0.072-0.171v-5.814c0-0.066,0.024-0.123,0.072-0.171c0.048-0.048,0.105-0.072,0.171-0.072H43.517z
		 M44.696,26.985c-0.036-0.69-0.444-1.035-1.224-1.035h-0.918v3.42h0.963c0.756,0,1.149-0.345,1.179-1.035
		c0.006-0.126,0.009-0.244,0.009-0.355c0-0.111,0-0.219,0-0.324s0-0.212,0-0.32S44.702,27.111,44.696,26.985z"/>
	<path d="M54.389,24.51c0.065,0,0.123,0.024,0.171,0.072c0.048,0.048,0.071,0.105,0.071,0.171v5.814
		c0,0.066-0.023,0.123-0.071,0.171c-0.048,0.048-0.105,0.072-0.171,0.072h-1.18c-0.066,0-0.123-0.024-0.17-0.072
		c-0.049-0.048-0.072-0.105-0.072-0.171v-2.205h-1.998v2.205c0,0.066-0.024,0.123-0.072,0.171c-0.049,0.048-0.105,0.072-0.172,0.072
		h-1.178c-0.066,0-0.123-0.022-0.171-0.067c-0.048-0.045-0.072-0.104-0.072-0.176v-5.814c0-0.066,0.024-0.123,0.072-0.171
		c0.048-0.048,0.105-0.072,0.171-0.072h1.178c0.066,0,0.123,0.024,0.172,0.072c0.048,0.048,0.072,0.105,0.072,0.171v2.169h1.998
		v-2.169c0-0.066,0.023-0.123,0.072-0.171c0.047-0.048,0.104-0.072,0.17-0.072H54.389z"/>
	<path d="M60.4,29.37c0.066,0,0.123,0.024,0.17,0.072c0.049,0.048,0.072,0.105,0.072,0.171v0.954c0,0.066-0.023,0.123-0.072,0.171
		c-0.047,0.048-0.104,0.072-0.17,0.072h-4.266c-0.066,0-0.123-0.024-0.172-0.072c-0.048-0.048-0.072-0.105-0.072-0.171v-5.814
		c0-0.066,0.024-0.123,0.072-0.171c0.049-0.048,0.105-0.072,0.172-0.072h4.193c0.066,0,0.123,0.024,0.172,0.072
		c0.047,0.048,0.07,0.105,0.07,0.171v0.954c0,0.066-0.023,0.123-0.07,0.171c-0.049,0.048-0.105,0.072-0.172,0.072h-2.771v0.972
		h2.574c0.064,0,0.123,0.024,0.17,0.072c0.049,0.048,0.072,0.105,0.072,0.171v0.954c0,0.066-0.023,0.123-0.072,0.171
		c-0.047,0.048-0.105,0.072-0.17,0.072h-2.574v1.008H60.4z"/>
	<path d="M66.088,29.37c0.066,0,0.123,0.024,0.172,0.072c0.047,0.048,0.072,0.105,0.072,0.171v0.954
		c0,0.066-0.025,0.123-0.072,0.171c-0.049,0.048-0.105,0.072-0.172,0.072h-4.166c-0.066,0-0.123-0.024-0.172-0.072
		c-0.047-0.048-0.072-0.105-0.072-0.171v-5.814c0-0.066,0.025-0.123,0.072-0.171c0.049-0.048,0.105-0.072,0.172-0.072H63.1
		c0.066,0,0.123,0.024,0.172,0.072c0.047,0.048,0.072,0.105,0.072,0.171v4.617H66.088z"/>
	<path d="M69.922,24.51c0.385,0,0.729,0.043,1.035,0.13s0.566,0.219,0.783,0.396s0.383,0.397,0.5,0.662
		c0.117,0.264,0.176,0.57,0.176,0.918c0,0.354-0.059,0.663-0.176,0.927c-0.117,0.264-0.283,0.483-0.5,0.657
		c-0.217,0.174-0.477,0.306-0.783,0.396c-0.307,0.09-0.65,0.135-1.035,0.135H68.77v1.836c0,0.066-0.023,0.123-0.072,0.171
		c-0.047,0.048-0.104,0.072-0.17,0.072h-1.18c-0.066,0-0.123-0.024-0.17-0.072c-0.049-0.048-0.072-0.105-0.072-0.171v-5.814
		c0-0.066,0.023-0.123,0.072-0.171c0.047-0.048,0.104-0.072,0.17-0.072H69.922z M68.77,27.327h1.107
		c0.252,0,0.461-0.056,0.625-0.167c0.166-0.111,0.248-0.292,0.248-0.544s-0.082-0.434-0.248-0.544
		c-0.164-0.111-0.373-0.167-0.625-0.167H68.77V27.327z"/>
	<path d="M75.395,24.42c0.336,0,0.652,0.047,0.949,0.14c0.297,0.093,0.555,0.222,0.773,0.387s0.393,0.36,0.518,0.585
		c0.127,0.225,0.189,0.472,0.189,0.742c0,0.216-0.037,0.405-0.107,0.567c-0.072,0.162-0.164,0.31-0.275,0.441
		s-0.232,0.25-0.365,0.355c-0.131,0.105-0.26,0.208-0.381,0.311c-0.123,0.102-0.234,0.208-0.334,0.319s-0.166,0.232-0.203,0.364
		c-0.018,0.066-0.045,0.123-0.084,0.171c-0.039,0.048-0.092,0.072-0.158,0.072h-1.098c-0.066,0-0.123-0.024-0.172-0.072
		c-0.047-0.048-0.072-0.105-0.072-0.171c0-0.198,0.041-0.375,0.123-0.531c0.08-0.156,0.18-0.298,0.301-0.428
		c0.119-0.129,0.25-0.247,0.391-0.355c0.143-0.108,0.271-0.211,0.393-0.311c0.119-0.099,0.221-0.199,0.301-0.301
		c0.082-0.102,0.121-0.213,0.121-0.333c0-0.174-0.064-0.311-0.197-0.41c-0.133-0.099-0.336-0.148-0.611-0.148
		c-0.271,0-0.465,0.041-0.582,0.122c-0.115,0.081-0.201,0.169-0.256,0.266s-0.1,0.185-0.139,0.266
		c-0.039,0.081-0.115,0.121-0.23,0.121H73.09c-0.055,0-0.1-0.018-0.139-0.054s-0.059-0.084-0.059-0.144
		c0.006-0.21,0.064-0.431,0.18-0.662c0.113-0.231,0.277-0.444,0.49-0.639c0.213-0.195,0.473-0.355,0.779-0.481
		C74.646,24.483,74.998,24.42,75.395,24.42z M76.178,30.567c0,0.066-0.025,0.123-0.072,0.171C76.057,30.786,76,30.81,75.934,30.81
		h-1.133c-0.066,0-0.123-0.024-0.172-0.072c-0.049-0.048-0.072-0.105-0.072-0.171v-0.909c0-0.066,0.023-0.123,0.072-0.171
		c0.049-0.048,0.105-0.072,0.172-0.072h1.133c0.066,0,0.123,0.024,0.172,0.072c0.047,0.048,0.072,0.105,0.072,0.171V30.567z"/>
</g>
</svg>
