<?xml version="1.0" encoding="utf-8"?>
<!-- Generator: Adobe Illustrator 16.0.0, SVG Export Plug-In . SVG Version: 6.00 Build 0)  -->
<!DOCTYPE svg PUBLIC "-//W3C//DTD SVG 1.1//EN" "http://www.w3.org/Graphics/SVG/1.1/DTD/svg11.dtd">
<svg version="1.1" id="Layer_1" xmlns="http://www.w3.org/2000/svg" xmlns:xlink="http://www.w3.org/1999/xlink" x="0px" y="0px"
	 width="100px" height="100px" viewBox="0 0 100 100" enable-background="new 0 0 100 100" xml:space="preserve">
<g>
	<g transform="translate(50 50) scale(0.69 0.69) rotate(0) translate(-50 -50)">
		<path d="M92.647,42.307c-0.801-1.101-2.1-1.8-3.7-1.901c-1.701-0.099-3.501,0.3-5.5,1.4c-3.702,2.001-5.701,5.101-7.501,7.901
			c-1.5,2.198-2.799,4.202-4.6,5.101c-3.201,1.5-6.601,0.3-8.401-2.999c-0.402-0.702-0.801-1.6-1.302-2.902
			c-0.099-0.497-0.198-0.999-0.3-1.5c-0.597-1.899-1.197-4.199-1.897-6.4c-0.6-2-1.101-3.899-1.599-5.5
			c-0.9-2.799-3-4.499-5.701-4.499c-0.801,0-1.701,0.2-2.601,0.5c-1.798,0.6-3.1,1.8-3.898,3.4c-0.3,0.6-0.402,1.2-0.501,1.8
			c-0.999-0.701-2.1-1.001-3.401-1.001c-1.2,0-2.399,0.3-3.7,0.9c-1.8,0.9-3.1,2.4-3.7,4.201c-0.103,0.5-0.201,0.899-0.3,1.4
			c-1.101-0.8-2.301-1.2-3.602-1.2c-1.301,0-2.699,0.401-4,1.2c-1.601,1.001-2.7,2.6-3.101,4.4c-0.1,0.401-0.1,0.9-0.1,1.3
			c-4.798-5.9-10.298-12.7-11-13.5c-1.799-2.1-4.6-2.4-6.9-0.8c-2.201,1.599-2.6,4.6-0.9,6.9c0.3,0.401,1.001,1.4,2,2.799
			c4.1,5.6,12.5,17.2,15.299,21.302c2.1,2.999,2.801,4.9,3.601,7.3c0.6,1.499,1.2,3.199,2.301,5.5
			c2.499,5.2,6.898,9.199,12.398,11.099c2.4,0.801,4.9,1.299,7.3,1.299c3.201,0,6.503-0.699,9.501-2.199
			c7.702-3.7,12.599-8.599,16.998-12.998c1.701-1.701,3.303-3.299,5.005-4.801c2.797-2.499,4.999-6.901,7.096-11.102
			c1.701-3.401,3.303-6.598,4.903-8.201C93.647,47.906,94.247,44.607,92.647,42.307z M47.647,35.706c0.5-0.999,1.4-1.799,2.601-2.3
			c0.6-0.2,1.299-0.3,1.899-0.3c1.8,0,3.102,1.101,3.702,3c0.498,1.601,0.999,3.5,1.599,5.5c0.6,2.202,1.302,4.501,1.902,6.399
			c0.798,2.499,0.099,3.9-2.301,4.701c-0.6,0.198-1.101,0.3-1.599,0.3l0,0c-1.401,0-2.4-0.9-3.1-2.6
			c-0.501-1.2-1.101-2.599-1.701-3.999c-0.999-2.3-2.1-4.901-3.099-7.401C47.151,37.907,47.249,36.706,47.647,35.706z
			 M36.549,41.306c0.399-1.299,1.299-2.3,2.6-3c0.899-0.5,1.799-0.699,2.699-0.699c1.8,0,3.101,0.999,4.001,2.9
			c0.801,1.7,1.602,3.8,2.499,5.999c1,2.301,1.999,4.799,2.899,6.8c1.299,2.799,0.702,4.399-1.899,5.698
			c-0.8,0.402-1.5,0.6-2.197,0.6l0,0c-1.403,0-2.502-0.798-3.504-2.498c-0.398-0.6-0.698-1.299-1.199-1.998
			c-1.8-3.101-3.8-6.601-5.599-10.001C36.247,43.906,36.148,42.607,36.549,41.306z M25.647,46.906c0.3-1.2,1.001-2.3,2.099-3
			c0.9-0.6,1.899-0.9,2.799-0.9c1.5,0,2.901,0.9,3.802,2.6c0.9,1.601,1.998,3.6,3.101,5.699c1.2,2.199,2.4,4.601,3.499,6.4
			c1.5,2.601,1.2,4.301-1.098,5.702c-0.8,0.497-1.601,0.797-2.301,0.797l0,0c-1.199,0-2.297-0.797-3.4-2.198
			c-0.399-0.6-0.9-1.2-1.299-1.899c-2.1-2.9-4.402-6.301-6.601-9.5C25.647,49.506,25.347,48.206,25.647,46.906z M89.548,48.807
			c-1.899,1.8-3.601,5.2-5.401,8.8c-1.998,4.099-4.099,8.298-6.601,10.499c-1.797,1.5-3.4,3.2-5.098,4.9
			c-4.402,4.403-9.001,9.001-16.401,12.602c-4.801,2.298-10.1,2.6-15.103,0.798c-4.999-1.8-8.898-5.299-11.198-10.002
			c-1.002-2.097-1.602-3.799-2.202-5.299c-0.899-2.399-1.697-4.501-3.898-7.801c-2.799-4.099-11.301-15.797-15.401-21.398
			c-0.998-1.4-1.7-2.3-2-2.799c-1.001-1.4-0.8-3,0.402-3.901c1.299-0.998,2.899-0.8,4,0.5c1.2,1.401,17.301,21.301,18.001,22.2
			c0.8,1.2,1.7,2.4,2.499,3.5c0.501,0.702,0.9,1.302,1.301,1.898c1.499,2.1,3.199,3.201,5.099,3.201l0,0
			c1.101,0,2.3-0.399,3.4-1.101c1.901-1.2,2.901-2.698,3-4.498c0.801,0.6,1.799,0.9,3,0.9l0,0c0.999,0,2.1-0.201,3.199-0.801
			c2.802-1.401,3.501-3.4,3.201-6.001c0.501,0.201,0.999,0.201,0.999,0.201l0,0c0.999,0,1.998-0.099,2.799-0.399
			c1.602-0.501,2.802-1.302,3.4-2.202c0,0.102,0.201,0.201,0.201,0.201c2.301,4.301,7,5.899,11.201,3.902
			c2.301-1.101,3.901-3.401,5.5-5.8c1.8-2.7,3.603-5.4,6.799-7.2c2.802-1.5,5.302-1.601,6.4-0.1
			C91.648,44.706,91.648,46.806,89.548,48.807z"/>
	</g>
</g>
<g>
	<path d="M41.583,21.208c0.121,0,0.225,0.044,0.313,0.132c0.088,0.088,0.132,0.192,0.132,0.313v1.749
		c0,0.121-0.044,0.226-0.132,0.313c-0.088,0.088-0.193,0.132-0.313,0.132h-4.934v2.261h4.604c0.121,0,0.225,0.044,0.313,0.132
		c0.088,0.088,0.132,0.193,0.132,0.313v1.749c0,0.121-0.044,0.226-0.132,0.313c-0.088,0.088-0.192,0.132-0.313,0.132h-4.604v3.564
		c0,0.121-0.044,0.226-0.132,0.313c-0.088,0.088-0.193,0.132-0.313,0.132h-2.162c-0.121,0-0.226-0.044-0.313-0.132
		c-0.088-0.088-0.132-0.192-0.132-0.313V21.654c0-0.121,0.044-0.225,0.132-0.313c0.088-0.088,0.192-0.132,0.313-0.132H41.583z"/>
	<path d="M49.271,21.208c0.22,0,0.388,0.061,0.503,0.181c0.116,0.121,0.195,0.242,0.239,0.363l3.597,10.395
		c0.045,0.11,0.066,0.192,0.066,0.248c0,0.099-0.035,0.184-0.107,0.255c-0.072,0.072-0.156,0.107-0.256,0.107h-2.079
		c-0.22,0-0.377-0.047-0.47-0.14c-0.094-0.093-0.152-0.184-0.174-0.272l-0.462-1.37h-4.389l-0.462,1.37
		c-0.022,0.088-0.08,0.179-0.173,0.272c-0.094,0.093-0.25,0.14-0.47,0.14h-2.079c-0.099,0-0.184-0.036-0.256-0.107
		c-0.071-0.071-0.107-0.157-0.107-0.255c0-0.055,0.022-0.138,0.066-0.248l3.597-10.395c0.043-0.121,0.124-0.242,0.239-0.363
		c0.115-0.121,0.283-0.181,0.503-0.181H49.271z M46.599,28.419h2.673l-1.336-3.96L46.599,28.419z"/>
	<path d="M54.354,25.515c0.033-0.616,0.168-1.196,0.404-1.741s0.572-1.017,1.008-1.419c0.434-0.401,0.961-0.72,1.584-0.957
		c0.621-0.236,1.338-0.354,2.152-0.354c0.803,0,1.518,0.118,2.145,0.354c0.627,0.237,1.158,0.556,1.594,0.957
		c0.434,0.402,0.77,0.875,1.006,1.419s0.371,1.125,0.404,1.741c0.021,0.473,0.033,0.968,0.033,1.485s-0.012,1.001-0.033,1.452
		c-0.033,0.583-0.152,1.128-0.355,1.634s-0.492,0.957-0.865,1.353l1.303,1.881c0.012,0.022,0.021,0.046,0.033,0.074
		c0.012,0.027,0.016,0.052,0.016,0.074c0.023,0.099-0.002,0.184-0.074,0.256c-0.07,0.071-0.156,0.107-0.256,0.107h-2.326
		c-0.209,0-0.363-0.047-0.461-0.14c-0.1-0.093-0.176-0.173-0.232-0.239l-0.461-0.693c-0.23,0.055-0.467,0.096-0.709,0.124
		s-0.496,0.042-0.76,0.042c-0.814,0-1.531-0.116-2.152-0.347c-0.623-0.231-1.15-0.55-1.584-0.957
		c-0.436-0.407-0.771-0.883-1.008-1.427s-0.371-1.125-0.404-1.741C54.332,28.001,54.32,27.517,54.32,27S54.332,25.988,54.354,25.515
		z M61.598,28.369c0.012-0.198,0.021-0.418,0.033-0.66c0.01-0.242,0.016-0.489,0.016-0.743c0-0.253-0.006-0.498-0.016-0.734
		c-0.012-0.236-0.021-0.448-0.033-0.635c-0.021-0.275-0.08-0.528-0.174-0.759s-0.225-0.432-0.395-0.603
		c-0.172-0.17-0.383-0.305-0.637-0.404c-0.252-0.099-0.549-0.149-0.891-0.149s-0.639,0.05-0.891,0.149
		c-0.254,0.099-0.465,0.233-0.635,0.404c-0.172,0.171-0.303,0.372-0.396,0.603s-0.152,0.484-0.174,0.759
		c-0.021,0.188-0.035,0.399-0.041,0.635c-0.006,0.237-0.008,0.481-0.008,0.734c0,0.253,0.002,0.5,0.008,0.743
		c0.006,0.242,0.02,0.462,0.041,0.66c0.045,0.55,0.234,1.007,0.57,1.37c0.334,0.363,0.844,0.544,1.525,0.544
		s1.188-0.182,1.518-0.544S61.543,28.919,61.598,28.369z"/>
</g>
</svg>
