<?xml version="1.0" encoding="iso-8859-1"?>
<!-- Generator: Adobe Illustrator 16.0.0, SVG Export Plug-In . SVG Version: 6.00 Build 0)  -->
<!DOCTYPE svg PUBLIC "-//W3C//DTD SVG 1.1//EN" "http://www.w3.org/Graphics/SVG/1.1/DTD/svg11.dtd">
<svg version="1.1" id="Capa_1" xmlns="http://www.w3.org/2000/svg" xmlns:xlink="http://www.w3.org/1999/xlink" x="0px" y="0px"
	 width="488.072px" height="488.073px" viewBox="0 0 488.072 488.073" style="enable-background:new 0 0 488.072 488.073;"
	 xml:space="preserve">
<g>
	<g>
		<path d="M170.105,367.45c-1.727,0-3.453-0.446-5-1.34c-3.094-1.786-5-5.088-5-8.66V130.623c0-3.573,1.906-6.874,5-8.66
			c3.094-1.786,6.906-1.786,10,0l196.438,113.414c3.094,1.786,5,5.087,5,8.66s-1.906,6.874-5,8.66L175.105,366.11
			C173.558,367.003,171.832,367.45,170.105,367.45z M180.105,147.944v192.186l166.438-96.093L180.105,147.944z"/>
	</g>
	<g>
		<path d="M244.036,488.072c-65.185,0-126.467-25.384-172.559-71.478C25.384,370.502,0,309.221,0,244.036
			c0-65.185,25.384-126.467,71.477-172.56C117.569,25.386,178.851,0,244.036,0c65.186,0,126.468,25.384,172.561,71.476
			c46.093,46.092,71.476,107.375,71.476,172.56c0,65.185-25.384,126.467-71.477,172.559
			C370.504,462.688,309.222,488.072,244.036,488.072z M244.036,20C184.194,20,127.933,43.305,85.619,85.62
			c-42.314,42.314-65.618,98.575-65.618,158.417s23.304,116.103,65.618,158.417c42.315,42.315,98.575,65.618,158.417,65.618
			c59.843,0,116.104-23.304,158.418-65.618s65.618-98.575,65.618-158.417S444.769,127.935,402.454,85.62S303.879,20,244.036,20z"/>
	</g>
</g>
<g>
</g>
<g>
</g>
<g>
</g>
<g>
</g>
<g>
</g>
<g>
</g>
<g>
</g>
<g>
</g>
<g>
</g>
<g>
</g>
<g>
</g>
<g>
</g>
<g>
</g>
<g>
</g>
<g>
</g>
</svg>
